<?xml version="1.0"?>
<svg xmlns="http://www.w3.org/2000/svg" width="512" height="512" viewBox="0 0 128 128">
  <g>
    <path d="M64,53.708a39.777,39.777,0,0,1,38.549-3.579A39.75,39.75,0,1,0,25,50.334,39.773,39.773,0,0,1,64,53.708Z" fill="#ff435b"/>
    <path d="M47.684,77.855A39.815,39.815,0,0,1,25,50.334c-1.137.521-2.261,1.094-3.366,1.732a39.75,39.75,0,1,0,39.75,68.849c.9-.522,1.771-1.084,2.618-1.664A39.771,39.771,0,0,1,47.684,77.855Z" fill="#64e1dc"/>
    <path d="M47.684,77.855A39.868,39.868,0,0,1,64,53.708a39.773,39.773,0,0,0-39-3.374A39.815,39.815,0,0,0,47.684,77.855Z" fill="#ffe1ba"/>
    <path d="M106.368,52.066a39.921,39.921,0,0,0-3.819-1.937A39.809,39.809,0,0,1,80.269,77.65,39.77,39.77,0,0,1,64,119.251c.847.58,1.714,1.142,2.618,1.664a39.75,39.75,0,1,0,39.75-68.849Z" fill="#47568c"/><path d="M64,53.708A39.863,39.863,0,0,1,80.269,77.65a39.809,39.809,0,0,0,22.28-27.521A39.777,39.777,0,0,0,64,53.708Z" fill="#50c5ff"/>
    <path d="M80.269,77.65a39.737,39.737,0,0,1-32.585.2A39.771,39.771,0,0,0,64,119.251,39.77,39.77,0,0,0,80.269,77.65Z" fill="#ffda2d"/>
    <path d="M64,53.708A39.868,39.868,0,0,0,47.684,77.855a39.737,39.737,0,0,0,32.585-.2A39.863,39.863,0,0,0,64,53.708Z" fill="#f5fbff"/>
  </g>
</svg>
