<svg height="512" viewBox="0 0 128 128" width="512" xmlns="http://www.w3.org/2000/svg">
  <path d="m128 16.379a16.38 16.38 0 0 0 -27.961-11.579l-18.083 18.08-3.614-3.614a6.894 6.894 0 0 0 -9.749 9.749l3.614 3.614-11.577 11.577-22.412 22.412-24.21 24.211a19.653 19.653 0 0 0 -5.727 14.428 16.052 16.052 0 0 1 -3.864 10.943l-4 4.662a1.749 1.749 0 0 0 .092 2.376l4.247 4.247a1.749 1.749 0 0 0 2.376.092l4.663-4a16.053 16.053 0 0 1 10.943-3.864 19.646 19.646 0 0 0 14.43-5.727l58.2-58.2 3.614 3.615a6.894 6.894 0 0 0 9.749-9.749l-3.614-3.615 18.083-18.076a16.27 16.27 0 0 0 4.8-11.582zm-93.3 95.139a16.109 16.109 0 0 1 -11.851 4.7 19.538 19.538 0 0 0 -13.325 4.7l-3.432 2.942-1.956-1.956 2.942-3.432a19.537 19.537 0 0 0 4.7-13.326 16.144 16.144 0 0 1 4.7-11.85l22.976-22.965 5.571 5.569a1.75 1.75 0 1 0 2.475-2.473l-5.571-5.57 5-5 3.135 3.143a1.75 1.75 0 1 0 2.475-2.474l-3.139-3.14 5-5 5.571 5.571a1.75 1.75 0 0 0 2.474-2.475l-5.57-5.57 5-5 3.14 3.14a1.75 1.75 0 0 0 2.474-2.475l-3.139-3.139 5-5 5.57 5.571a1.75 1.75 0 1 0 2.475-2.475l-5.571-5.571 2.858-2.863 15.609 15.613 2.605 2.6zm71.561-54.586a3.475 3.475 0 0 1 -4.8 0l-4.851-4.851-10.346-10.345-15.2-15.2a3.394 3.394 0 0 1 4.8-4.8l4.851 4.851 10.348 10.349 15.2 15.2a3.4 3.4 0 0 1 -.005 4.796zm-3.613-13.364-15.612-15.608-2.605-2.606 18.083-18.082a12.879 12.879 0 1 1 18.213 18.214z"/>
</svg>