<?xml version="1.0" encoding="UTF-8"?>
<svg width="134px" height="137px" viewBox="0 0 134 137" version="1.1" xmlns="http://www.w3.org/2000/svg" xmlns:xlink="http://www.w3.org/1999/xlink">
    <g id="Page-1" stroke-width="1" >
        <g id="magnifying-glass">
            <path d="M93.148438,80.832031 C109.5,57.742188 104.03125,25.769531 80.941406,9.421875 C57.851562,-6.925781 25.878906,-1.460938 9.53125,21.632812 C-6.816406,44.722656 -1.351562,76.691406 21.742188,93.039062 C38.222656,104.707031 60.011719,105.605469 77.394531,95.339844 L115.164062,132.882812 C119.242188,137.175781 126.027344,137.347656 130.320312,133.269531 C134.613281,129.195312 134.785156,122.410156 130.710938,118.117188 C130.582031,117.980469 130.457031,117.855469 130.320312,117.726562 L93.148438,80.832031 Z M51.308594,84.332031 C33.0625,84.335938 18.269531,69.554688 18.257812,51.308594 C18.253906,33.0625 33.035156,18.269531 51.285156,18.261719 C69.507812,18.253906 84.292969,33.011719 84.328125,51.234375 C84.359375,69.484375 69.585938,84.300781 51.332031,84.332031 C51.324219,84.332031 51.320312,84.332031 51.308594,84.332031 Z" id="Shape"></path>
        </g>
        <path d="M51.2929929,29.5 L51.2929929,69.5" id="Line" stroke-width="9" stroke-linecap="square"></path>
        <path d="M51.2929929,29.5 L51.2929929,69.5" id="Line" stroke-width="9" stroke-linecap="square"></path>
        <path d="M51.7929929,30 L51.7929929,70" id="Line" stroke-width="9" stroke-linecap="square" transform="translate(51.500000, 50.000000) rotate(-90.000000) translate(-51.500000, -50.000000) "></path>
    </g>
</svg>