<?xml version="1.0"?>
<svg xmlns="http://www.w3.org/2000/svg" width="512" height="512" viewBox="0 0 128 128"><g><path d="M123.443,36.479a1.75,1.75,0,0,0-1.75-1.75h-4.5V31.161a1.749,1.749,0,0,0-1.75-1.75h-4.452V25.576h4.452a1.749,1.749,0,0,0,1.75-1.75V6.307a1.749,1.749,0,0,0-1.75-1.75H12.556a1.749,1.749,0,0,0-1.75,1.75V23.826a1.749,1.749,0,0,0,1.75,1.75h4.452v3.835H12.556a1.749,1.749,0,0,0-1.75,1.75v3.568h-4.5a1.75,1.75,0,0,0-1.75,1.75v6.184A51.524,51.524,0,0,0,17.008,76.282v45.411a1.749,1.749,0,0,0,1.75,1.75h90.484a1.749,1.749,0,0,0,1.75-1.75V76.282a51.524,51.524,0,0,0,12.451-33.619Zm-9.749-3.568v7.137h-2.7V32.911Zm0-10.835H102.5V8.057h11.2ZM85.606,42.75h-.984a6.8,6.8,0,0,0-6.8,6.8V65.228a3.3,3.3,0,0,1-3.3,3.3H73.3a3.3,3.3,0,0,1-3.3-3.3V36.175a6.8,6.8,0,0,0-6.8-6.8H61.479a6.8,6.8,0,0,0-6.8,6.8v3.277a3.3,3.3,0,0,1-3.3,3.3H49.661a3.3,3.3,0,0,1-3.3-3.3V8.057H91.632V20.633a1.75,1.75,0,0,0,3.5,0V8.057H99v42.4a3.3,3.3,0,0,1-6.594,0v-.908A6.805,6.805,0,0,0,85.606,42.75ZM14.306,8.057H42.864V22.076H14.306ZM42.864,25.576V39.452a6.805,6.805,0,0,0,6.8,6.8h1.724a6.805,6.805,0,0,0,6.8-6.8V36.175a3.3,3.3,0,0,1,3.3-3.3H63.2a3.3,3.3,0,0,1,3.3,3.3V65.228a6.8,6.8,0,0,0,6.8,6.8h1.23a6.8,6.8,0,0,0,6.8-6.8V49.547a3.3,3.3,0,0,1,3.3-3.3h.984a3.3,3.3,0,0,1,3.3,3.3v.908a6.8,6.8,0,0,0,13.594,0V25.576h4.994v49.4A48.149,48.149,0,0,1,71.68,90.927H56.32A48.149,48.149,0,0,1,20.508,74.98v-49.4ZM14.306,32.911h2.7v7.137h-2.7ZM8.057,42.663V38.229h2.749V41.8a1.749,1.749,0,0,0,1.75,1.75h4.452V70.609A47.986,47.986,0,0,1,8.057,42.663Zm12.451,77.28V79.986A51.57,51.57,0,0,0,56.32,94.427H71.68a51.57,51.57,0,0,0,35.812-14.441v39.957Zm99.435-77.28a47.986,47.986,0,0,1-8.951,27.946V43.548h4.452a1.749,1.749,0,0,0,1.75-1.75V38.229h2.749Z"/><path d="M95.132,31.838v-3.37a1.75,1.75,0,0,0-3.5,0v3.37a1.75,1.75,0,0,0,3.5,0Z"/><path d="M70.673,109.474H29.414a1.75,1.75,0,0,0,0,3.5H70.673a1.75,1.75,0,0,0,0-3.5Z"/><path d="M89.269,109.474H80.951a1.75,1.75,0,0,0,0,3.5h8.318a1.75,1.75,0,0,0,0-3.5Z"/></g></svg>
