<?xml version="1.0" encoding="iso-8859-1"?>
<!-- Generator: Adobe Illustrator 19.0.0, SVG Export Plug-In . SVG Version: 6.00 Build 0)  -->
<svg version="1.1" id="Capa_1" xmlns="http://www.w3.org/2000/svg" xmlns:xlink="http://www.w3.org/1999/xlink" x="0px" y="0px"
	 viewBox="0 0 310 310" style="enable-background:new 0 0 310 310;" xml:space="preserve">
	<g>
		<g>
			<g>
				<path d="M201.8,262.4h-94c-4.8,0-8.4,4-8.4,8.4c0,4.8,4,8.4,8.4,8.4h94c4.8,0,8.4-4,8.4-8.4C210.2,266,206.2,262.4,201.8,262.4z"
					/>
				<path d="M175.8,105.2h40c2,0,3.6-1.6,3.6-3.6v-40c0-2-1.6-3.6-3.6-3.6h-40c-2,0-3.6,1.6-3.6,3.6v40
					C172.2,103.6,173.8,105.2,175.8,105.2z"/>
				<path d="M201.8,229.6h-94c-4.8,0-8.4,4-8.4,8.4c0,4.8,4,8.4,8.4,8.4h94c4.8,0,8.4-4,8.4-8.4C210.2,233.2,206.2,229.6,201.8,229.6
					z"/>
				<path d="M304.6,59.2L247.8,2.4c-1.6-1.6-3.6-2.4-6-2.4h-9.6h-164H30.6C23,0,16.2,3.2,11,8c-4.8,5.2-8,12-8,19.6v254.8
					c0,7.6,3.2,14.8,8,19.6c5.2,4.8,12,8,19.6,8h37.6h173.6h37.6c7.6,0,14.8-3.2,19.6-8s8-11.6,8-19.2V65.2
					C307,62.8,306.2,60.8,304.6,59.2z M76.6,16.8h156c0.4,0,0.4,0.4,0.8,0.4c0.4,0,0.4,0.4,0.4,0.8v93.2c0,2-0.8,3.6-2,4.8
					c-1.2,1.2-2.8,2-4.8,2H83.4c-2,0-3.6-0.8-4.8-2c-1.2-1.2-2-2.8-2-4.8V16.8z M233.4,293.6H76.2v-74.4c0-1.2,0.4-2,1.2-2.8
					c0.8-0.8,1.6-1.2,2.8-1.2h149.2c1.2,0,2,0.4,2.8,1.2s1.2,1.6,1.2,2.8V293.6z M289.8,282.8c0,2.8-1.2,5.6-3.2,7.6
					s-4.8,3.2-7.6,3.2h-29.2v-74.4c0-5.6-2.4-10.8-6-14.4c-3.6-3.6-8.8-6-14.4-6H80.2c-5.6,0-10.8,2.4-14.4,6c-3.6,3.6-6,8.8-6,14.4
					v74.4H31c-2.8,0-5.6-1.2-7.6-3.2s-3.2-4.8-3.2-7.6V27.6c0-2.8,1.2-5.6,3.2-7.6s4.8-3.2,7.6-3.2h29.2v94.4c0,6.4,2.4,12,6.8,16.4
					c4,4,10,6.8,16.4,6.8h143.2c6.4,0,12-2.4,16.4-6.8c4-4,6.8-10,6.8-16.4V28.4l40,40V282.8z"/>
			</g>
		</g>
	</g>
</svg>
