<?xml version="1.0" encoding="UTF-8"?><!DOCTYPE svg PUBLIC "-//W3C//DTD SVG 1.1//EN" "http://www.w3.org/Graphics/SVG/1.1/DTD/svg11.dtd"><svg xmlns="http://www.w3.org/2000/svg" xmlns:xlink="http://www.w3.org/1999/xlink"><defs>
        <filter x="-9.0%" y="-8.8%" width="117.9%" height="117.5%" filterUnits="objectBoundingBox" id="filter-1">
            <feOffset dx="0" dy="2" in="SourceAlpha" result="shadowOffsetOuter1"/>
            <feGaussianBlur stdDeviation="2" in="shadowOffsetOuter1" result="shadowBlurOuter1"/>
            <feColorMatrix values="0 0 0 0 0   0 0 0 0 0   0 0 0 0 0  0 0 0 0.5 0" type="matrix" in="shadowBlurOuter1" result="shadowMatrixOuter1"/>
            <feMerge>
                <feMergeNode in="shadowMatrixOuter1"/>
                <feMergeNode in="SourceGraphic"/>
            </feMerge>
        </filter>
    </defs><symbol id="color-picker" viewBox="0 0 128 128">
  <path d="m128 16.379a16.38 16.38 0 0 0 -27.961-11.579l-18.083 18.08-3.614-3.614a6.894 6.894 0 0 0 -9.749 9.749l3.614 3.614-11.577 11.577-22.412 22.412-24.21 24.211a19.653 19.653 0 0 0 -5.727 14.428 16.052 16.052 0 0 1 -3.864 10.943l-4 4.662a1.749 1.749 0 0 0 .092 2.376l4.247 4.247a1.749 1.749 0 0 0 2.376.092l4.663-4a16.053 16.053 0 0 1 10.943-3.864 19.646 19.646 0 0 0 14.43-5.727l58.2-58.2 3.614 3.615a6.894 6.894 0 0 0 9.749-9.749l-3.614-3.615 18.083-18.076a16.27 16.27 0 0 0 4.8-11.582zm-93.3 95.139a16.109 16.109 0 0 1 -11.851 4.7 19.538 19.538 0 0 0 -13.325 4.7l-3.432 2.942-1.956-1.956 2.942-3.432a19.537 19.537 0 0 0 4.7-13.326 16.144 16.144 0 0 1 4.7-11.85l22.976-22.965 5.571 5.569a1.75 1.75 0 1 0 2.475-2.473l-5.571-5.57 5-5 3.135 3.143a1.75 1.75 0 1 0 2.475-2.474l-3.139-3.14 5-5 5.571 5.571a1.75 1.75 0 0 0 2.474-2.475l-5.57-5.57 5-5 3.14 3.14a1.75 1.75 0 0 0 2.474-2.475l-3.139-3.139 5-5 5.57 5.571a1.75 1.75 0 1 0 2.475-2.475l-5.571-5.571 2.858-2.863 15.609 15.613 2.605 2.6zm71.561-54.586a3.475 3.475 0 0 1 -4.8 0l-4.851-4.851-10.346-10.345-15.2-15.2a3.394 3.394 0 0 1 4.8-4.8l4.851 4.851 10.348 10.349 15.2 15.2a3.4 3.4 0 0 1 -.005 4.796zm-3.613-13.364-15.612-15.608-2.605-2.606 18.083-18.082a12.879 12.879 0 1 1 18.213 18.214z"/>
</symbol><symbol id="colors" viewBox="0 0 128 128">
  <g>
    <path d="M64,53.708a39.777,39.777,0,0,1,38.549-3.579A39.75,39.75,0,1,0,25,50.334,39.773,39.773,0,0,1,64,53.708Z" fill="#ff435b"/>
    <path d="M47.684,77.855A39.815,39.815,0,0,1,25,50.334c-1.137.521-2.261,1.094-3.366,1.732a39.75,39.75,0,1,0,39.75,68.849c.9-.522,1.771-1.084,2.618-1.664A39.771,39.771,0,0,1,47.684,77.855Z" fill="#64e1dc"/>
    <path d="M47.684,77.855A39.868,39.868,0,0,1,64,53.708a39.773,39.773,0,0,0-39-3.374A39.815,39.815,0,0,0,47.684,77.855Z" fill="#ffe1ba"/>
    <path d="M106.368,52.066a39.921,39.921,0,0,0-3.819-1.937A39.809,39.809,0,0,1,80.269,77.65,39.77,39.77,0,0,1,64,119.251c.847.58,1.714,1.142,2.618,1.664a39.75,39.75,0,1,0,39.75-68.849Z" fill="#47568c"/><path d="M64,53.708A39.863,39.863,0,0,1,80.269,77.65a39.809,39.809,0,0,0,22.28-27.521A39.777,39.777,0,0,0,64,53.708Z" fill="#50c5ff"/>
    <path d="M80.269,77.65a39.737,39.737,0,0,1-32.585.2A39.771,39.771,0,0,0,64,119.251,39.77,39.77,0,0,0,80.269,77.65Z" fill="#ffda2d"/>
    <path d="M64,53.708A39.868,39.868,0,0,0,47.684,77.855a39.737,39.737,0,0,0,32.585-.2A39.863,39.863,0,0,0,64,53.708Z" fill="#f5fbff"/>
  </g>
</symbol><symbol id="magnifying-glass-minus" viewBox="0 0 134 137">
    
    <g id="Page-1" stroke-width="1" fill-rule="evenodd">
        <g id="magnifying-glass">
            <path d="M93.148438,80.832031 C109.5,57.742188 104.03125,25.769531 80.941406,9.421875 C57.851562,-6.925781 25.878906,-1.460938 9.53125,21.632812 C-6.816406,44.722656 -1.351562,76.691406 21.742188,93.039062 C38.222656,104.707031 60.011719,105.605469 77.394531,95.339844 L115.164062,132.882812 C119.242188,137.175781 126.027344,137.347656 130.320312,133.269531 C134.613281,129.195312 134.785156,122.410156 130.710938,118.117188 C130.582031,117.980469 130.457031,117.855469 130.320312,117.726562 L93.148438,80.832031 Z M51.308594,84.332031 C33.0625,84.335938 18.269531,69.554688 18.257812,51.308594 C18.253906,33.0625 33.035156,18.269531 51.285156,18.261719 C69.507812,18.253906 84.292969,33.011719 84.328125,51.234375 C84.359375,69.484375 69.585938,84.300781 51.332031,84.332031 C51.324219,84.332031 51.320312,84.332031 51.308594,84.332031 Z" id="Shape"/>
        </g>
        <path d="M51.7929929,30 L51.7929929,70" id="Line" stroke-width="9" stroke-linecap="square" transform="translate(51.500000, 50.000000) rotate(-90.000000) translate(-51.500000, -50.000000) "/>
    </g>
</symbol><symbol id="magnifying-glass-plus" viewBox="0 0 134 137">
    <g id="Page-1" stroke-width="1">
        <g id="magnifying-glass">
            <path d="M93.148438,80.832031 C109.5,57.742188 104.03125,25.769531 80.941406,9.421875 C57.851562,-6.925781 25.878906,-1.460938 9.53125,21.632812 C-6.816406,44.722656 -1.351562,76.691406 21.742188,93.039062 C38.222656,104.707031 60.011719,105.605469 77.394531,95.339844 L115.164062,132.882812 C119.242188,137.175781 126.027344,137.347656 130.320312,133.269531 C134.613281,129.195312 134.785156,122.410156 130.710938,118.117188 C130.582031,117.980469 130.457031,117.855469 130.320312,117.726562 L93.148438,80.832031 Z M51.308594,84.332031 C33.0625,84.335938 18.269531,69.554688 18.257812,51.308594 C18.253906,33.0625 33.035156,18.269531 51.285156,18.261719 C69.507812,18.253906 84.292969,33.011719 84.328125,51.234375 C84.359375,69.484375 69.585938,84.300781 51.332031,84.332031 C51.324219,84.332031 51.320312,84.332031 51.308594,84.332031 Z" id="Shape"/>
        </g>
        <path d="M51.2929929,29.5 L51.2929929,69.5" id="Line" stroke-width="9" stroke-linecap="square"/>
        <path d="M51.2929929,29.5 L51.2929929,69.5" id="Line" stroke-width="9" stroke-linecap="square"/>
        <path d="M51.7929929,30 L51.7929929,70" id="Line" stroke-width="9" stroke-linecap="square" transform="translate(51.500000, 50.000000) rotate(-90.000000) translate(-51.500000, -50.000000) "/>
    </g>
</symbol><symbol id="moon" viewBox="0 0 312.999 312.999">
	<g>
		<g>
			<path d="M305.6,178.053c-3.2-0.8-6.4,0-9.2,2c-10.4,8.8-22.4,16-35.6,20.8c-12.4,4.8-26,7.2-40.4,7.2c-32.4,0-62-13.2-83.2-34.4
				c-21.2-21.2-34.4-50.8-34.4-83.2c0-13.6,2.4-26.8,6.4-38.8c4.4-12.8,10.8-24.4,19.2-34.4c3.6-4.4,2.8-10.8-1.6-14.4
				c-2.8-2-6-2.8-9.2-2c-34,9.2-63.6,29.6-84.8,56.8c-20.4,26.8-32.8,60-32.8,96.4c0,43.6,17.6,83.2,46.4,112s68.4,46.4,112,46.4
				c36.8,0,70.8-12.8,98-34c27.6-21.6,47.6-52.4,56-87.6C314.4,184.853,311.2,179.253,305.6,178.053z M244.4,261.653
				c-23.2,18.4-52.8,29.6-85.2,29.6c-38,0-72.4-15.6-97.2-40.4c-24.8-24.8-40.4-59.2-40.4-97.2c0-31.6,10.4-60.4,28.4-83.6
				c12.4-16,28-29.2,46-38.4c-2,4.4-4,8.8-5.6,13.6c-5.2,14.4-7.6,29.6-7.6,45.6c0,38,15.6,72.8,40.4,97.6s59.6,40.4,97.6,40.4
				c16.8,0,32.8-2.8,47.6-8.4c5.2-2,10.4-4,15.2-6.4C274,232.453,260.8,248.853,244.4,261.653z"/>
		</g>
	</g>
</symbol><symbol id="paintbrush" viewBox="0 0 404.24 404.24">
	<g>
		<g>
			<path d="M402.216,0c-16.933,15.714-38.99,24.752-62.08,25.44h-4.48h-0.96c-19.52,0-29.92,35.28-33.04,52.24l22.4,22.4h4.88
				c18.981,0.355,37.259-7.177,50.48-20.8C395.416,62.24,402.936,35.6,402.216,0z"/>
		</g>
	</g>
	<g>
		<g>
			<path d="M251.096,124.96C219.816,152,24.136,323.52,1.976,404.24c80-22.48,251.92-218.08,278.96-249.44L251.096,124.96z"/>
		</g>
	</g>
	<g>
		<g>
			<polygon points="290.136,83.04 252.376,109.28 296.616,153.52 322.856,115.76 		"/>
		</g>
	</g>
</symbol><symbol id="save" viewBox="0 0 310 310">
	<g>
		<g>
			<g>
				<path d="M201.8,262.4h-94c-4.8,0-8.4,4-8.4,8.4c0,4.8,4,8.4,8.4,8.4h94c4.8,0,8.4-4,8.4-8.4C210.2,266,206.2,262.4,201.8,262.4z"/>
				<path d="M175.8,105.2h40c2,0,3.6-1.6,3.6-3.6v-40c0-2-1.6-3.6-3.6-3.6h-40c-2,0-3.6,1.6-3.6,3.6v40
					C172.2,103.6,173.8,105.2,175.8,105.2z"/>
				<path d="M201.8,229.6h-94c-4.8,0-8.4,4-8.4,8.4c0,4.8,4,8.4,8.4,8.4h94c4.8,0,8.4-4,8.4-8.4C210.2,233.2,206.2,229.6,201.8,229.6
					z"/>
				<path d="M304.6,59.2L247.8,2.4c-1.6-1.6-3.6-2.4-6-2.4h-9.6h-164H30.6C23,0,16.2,3.2,11,8c-4.8,5.2-8,12-8,19.6v254.8
					c0,7.6,3.2,14.8,8,19.6c5.2,4.8,12,8,19.6,8h37.6h173.6h37.6c7.6,0,14.8-3.2,19.6-8s8-11.6,8-19.2V65.2
					C307,62.8,306.2,60.8,304.6,59.2z M76.6,16.8h156c0.4,0,0.4,0.4,0.8,0.4c0.4,0,0.4,0.4,0.4,0.8v93.2c0,2-0.8,3.6-2,4.8
					c-1.2,1.2-2.8,2-4.8,2H83.4c-2,0-3.6-0.8-4.8-2c-1.2-1.2-2-2.8-2-4.8V16.8z M233.4,293.6H76.2v-74.4c0-1.2,0.4-2,1.2-2.8
					c0.8-0.8,1.6-1.2,2.8-1.2h149.2c1.2,0,2,0.4,2.8,1.2s1.2,1.6,1.2,2.8V293.6z M289.8,282.8c0,2.8-1.2,5.6-3.2,7.6
					s-4.8,3.2-7.6,3.2h-29.2v-74.4c0-5.6-2.4-10.8-6-14.4c-3.6-3.6-8.8-6-14.4-6H80.2c-5.6,0-10.8,2.4-14.4,6c-3.6,3.6-6,8.8-6,14.4
					v74.4H31c-2.8,0-5.6-1.2-7.6-3.2s-3.2-4.8-3.2-7.6V27.6c0-2.8,1.2-5.6,3.2-7.6s4.8-3.2,7.6-3.2h29.2v94.4c0,6.4,2.4,12,6.8,16.4
					c4,4,10,6.8,16.4,6.8h143.2c6.4,0,12-2.4,16.4-6.8c4-4,6.8-10,6.8-16.4V28.4l40,40V282.8z"/>
			</g>
		</g>
	</g>
</symbol></svg>